<svg xmlns="http://www.w3.org/2000/svg" viewBox="0 0 932.72 219.51"><defs><style>.cls-1{fill:#0065a3;}</style></defs><title>Asset 2</title><g id="Layer_2" data-name="Layer 2"><g id="Layer_1-2" data-name="Layer 1"><polygon class="cls-1" points="132.26 99.62 123.45 99.62 123.45 218.17 189.54 218.17 189.54 210.88 132.26 210.88 132.26 99.62"/><polygon class="cls-1" points="218.78 161.62 271.78 161.62 271.78 154.66 218.78 154.66 218.78 106.74 282.47 106.74 282.47 99.62 209.97 99.62 209.97 218.17 282.47 218.17 282.64 211.05 218.78 211.05 218.78 161.62"/><path class="cls-1" d="M343,99.62l-49.5,118.55h6.67a3.2,3.2,0,0,0,2-.67,3.66,3.66,0,0,0,1.2-1.59l14.19-34.44H377l14.19,34.44a4.26,4.26,0,0,0,1.2,1.63,3,3,0,0,0,2,.63h6.75L351.63,99.62Zm-22.74,75.49,24.62-59.82a33.67,33.67,0,0,0,1.29-3.31c.4-1.2.77-2.48,1.11-3.82a58,58,0,0,0,2.48,7l24.62,59.91Z"/><path class="cls-1" d="M459.35,163.54a52.09,52.09,0,0,0,14.32-3.6A36.05,36.05,0,0,0,484.53,153a29.15,29.15,0,0,0,6.88-9.84,31.44,31.44,0,0,0,2.39-12.4q0-15.34-10.39-23.25t-31.24-7.92H421.22V218.17H430V164.55h15.82a23.52,23.52,0,0,1,3,.17,8.49,8.49,0,0,1,2.13.54,5.55,5.55,0,0,1,1.63,1.05,12.43,12.43,0,0,1,1.41,1.59L492.86,216a4.76,4.76,0,0,0,1.84,1.72,5.68,5.68,0,0,0,2.44.46h7.52L463,166.9A13.66,13.66,0,0,0,459.35,163.54ZM451,158.18H430V106.4h22.15q16.15,0,24.58,6.12t8.42,18.77a26,26,0,0,1-2.31,11.14,23.37,23.37,0,0,1-6.71,8.46,31.33,31.33,0,0,1-10.77,5.41A51,51,0,0,1,451,158.18Z"/><path class="cls-1" d="M608.11,100.29a3.59,3.59,0,0,0-1.2,1.59l-41.12,98.36a34.3,34.3,0,0,0-1.37,3.94c-.4,1.4-.77,2.82-1.11,4.27-.4-1.45-.83-2.87-1.29-4.27s-.91-2.71-1.36-3.94l-41.21-98.36a4.16,4.16,0,0,0-1.2-1.63,3,3,0,0,0-2-.63h-6.93l49.93,118.55h7.78L617,99.62h-6.84A3.18,3.18,0,0,0,608.11,100.29Z"/><rect class="cls-1" x="637.08" y="99.62" width="8.81" height="118.55"/><polygon class="cls-1" points="690.43 161.62 743.44 161.62 743.44 154.66 690.43 154.66 690.43 106.74 754.13 106.74 754.13 99.62 681.63 99.62 681.63 218.17 754.13 218.17 754.3 211.05 690.43 211.05 690.43 161.62"/><path class="cls-1" d="M926.05,99.62a3.4,3.4,0,0,0-2.1.67,3,3,0,0,0-1.15,1.59l-30.52,97.44c-.29,1.12-.56,2.3-.81,3.56l-.82,4c-.28-1.4-.58-2.74-.89-4a31.43,31.43,0,0,0-1.07-3.52l-34.2-97.44a4.06,4.06,0,0,0-1.2-1.63,3,3,0,0,0-2-.63h-2.4a3.22,3.22,0,0,0-2,.67,3.56,3.56,0,0,0-1.19,1.59l-34.2,97.44a31.68,31.68,0,0,0-1,3.56c-.28,1.26-.57,2.61-.85,4.06-.52-2.84-1.09-5.39-1.71-7.62l-30.52-97.44a3,3,0,0,0-3.17-2.26H767l38.13,118.55h7.78l35.82-102.88c.45-1.4.85-2.85,1.19-4.36.35,1.51.74,3,1.2,4.36l35.74,102.88h7.86L932.72,99.62Z"/><path class="cls-1" d="M85.32,65.2c-4.4-5.4-15.74-17.33-23.1-25.44-5.84-6.44-6.77-6.48-8.77-9.94-2.32-4-1.76-5.16-5-12.86C46,11,44.75,8,42.63,5.85,36.79-.09,28.74,0,28,0a16.54,16.54,0,0,0-9.36,2.63c-2.05,1.45-2.1,2.4-4.38,3.51,0,0-10.58,3-10.53,3.8C3.82,11,9.92,9.7,14.57,12.87a12.32,12.32,0,0,1,5.26,10.52c-.26,3.35-2.17,4-3.8,8.19-2.31,6-1.3,13.2.53,19.2a46.51,46.51,0,0,0,9.51,17,55.26,55.26,0,0,0,23.1,15.92,40.2,40.2,0,0,0,8.32,1.81c.59.07,2.27.15,4.17.21L57.83,98.29a62,62,0,0,0-23.12,4.39,53.06,53.06,0,0,0-18.47,12.4,56.31,56.31,0,0,0-12,19.14A68.26,68.26,0,0,0,0,158.85a71.48,71.48,0,0,0,4.15,25A54.84,54.84,0,0,0,15.82,203a51.61,51.61,0,0,0,18,12.24,60,60,0,0,0,23,4.31,72.89,72.89,0,0,0,13.81-1.21,57.71,57.71,0,0,0,11.54-3.44,50.07,50.07,0,0,0,9.66-5.36,57.24,57.24,0,0,0,8.17-7.08l-3.42-3.6a2,2,0,0,0-1.46-.59,1.9,1.9,0,0,0-.85.21,5.08,5.08,0,0,0-.86.54,59.53,59.53,0,0,1-7.26,5.7,42.64,42.64,0,0,1-8,4.11,46,46,0,0,1-9.37,2.51,71.6,71.6,0,0,1-11.58.84,49.69,49.69,0,0,1-19.11-3.65A44.11,44.11,0,0,1,22.83,198a48.7,48.7,0,0,1-10.22-16.71,63.46,63.46,0,0,1-3.72-22.46,63.34,63.34,0,0,1,3.68-22.2,48.43,48.43,0,0,1,10.21-16.76,44.26,44.26,0,0,1,15.65-10.55,52.89,52.89,0,0,1,20-3.69,51.51,51.51,0,0,1,14.66,1.84,55.49,55.49,0,0,1,10.22,4.07,44.61,44.61,0,0,1,6.41,4.06c1.54,1.23,2.65,1.84,3.33,1.84a2.41,2.41,0,0,0,2.14-1l2.65-3.77a59.5,59.5,0,0,0-17.44-10.64,57,57,0,0,0-18.1-3.67l3.81-12.55c1.19,0,2.14.08,2.55.12a114.62,114.62,0,0,1,19.81,3.91l.21.06.11,0q2.88.9,5.72,2,5.37,2,10.51,4.49c1.05.51,2.1,1,3.15,1.57.36.18.91.2.66-.36a5.88,5.88,0,0,0-1-1.18c-.89-1-1.8-1.94-2.72-2.89-2.14-2.23-4.33-4.44-6.42-6.72-.34-.37-3.3-3.18-2.85-3.79s10.08,3.87,17.69,9c1.62,1.09-.6-2.17-4-5.78C102,78,88.93,69.64,85.32,65.2ZM66.21,85.67h0l2.43.27Z"/></g></g></svg>