<svg id="Layer_2" style="transform:scale(1.01) rotatey(180deg)" data-name="Layer 2" xmlns="http://www.w3.org/2000/svg" xmlns:xlink="http://www.w3.org/1999/xlink" viewBox="0 5 1920.86 1021.3"><defs><style>.cls-1{fill:url(#linear-gradient);}.cls-2{fill:none;stroke:#00a34f;stroke-miterlimit:10;stroke-width:4px;}.cls-3{fill:url(#linear-gradient-2);}</style><linearGradient id="linear-gradient" x1="903.46" y1="95.4" x2="1052.56" y2="987.38" gradientUnits="userSpaceOnUse"><stop offset="0" stop-color="#40ba7b"/><stop offset="1" stop-color="#008c44"/></linearGradient><linearGradient id="linear-gradient-2" x1="1449.47" y1="1187.73" x2="639.53" y2="-98.36" gradientUnits="userSpaceOnUse"><stop offset="0.1" stop-color="#20628b"/><stop offset="0.16" stop-color="#1a5e88"/><stop offset="0.37" stop-color="#0b5480"/><stop offset="0.62" stop-color="#034e7b"/><stop offset="1" stop-color="#004c7a"/></linearGradient></defs><title>background-Illustration</title><path class="cls-1" d="M1920,937.33C1553.87,992.44,1206.14,948,848.39,870.17,558.5,807.1,292.4,798.44,0,867.28V0H1920Z" transform="translate(0.69 0.5)"/><path class="cls-2" d="M1920,1002s-297,25-475,14C1128.6,996.45,647,858,415,858,157,858,0,916,0,916" transform="translate(0.69 0.5)"/><path class="cls-3" d="M1920,804.5s-148,27-465,27-647-93-905-93-550,83-550,83V-.5H1920Z" transform="translate(0.69 0.5)"/></svg>